<?xml version="1.0" encoding="UTF-8"?>
<svg id="Layer_1" data-name="Layer 1" xmlns="http://www.w3.org/2000/svg" viewBox="0 0 752.73 613.7">
  <defs>
    <style>
      .cls-1 {
        fill: none;
        stroke: #47171a;
        stroke-miterlimit: 10;
        stroke-width: 15px;
      }

      .cls-2 {
        fill: #47171a;
      }
    </style>
  </defs>
  <ellipse class="cls-1" cx="376.36" cy="306.85" rx="368.86" ry="299.35"/>
  <path class="cls-2" d="M182.94,217.04h75.55v5.84c-8.35,0-14.01.79-16.98,2.37-2.97,1.58-4.93,4.22-5.88,7.9-.95,3.69-1.42,12.63-1.42,26.81v17.51c-2.07-.32-3.92-.49-5.55-.49-6.63,0-15.33,1.91-26.09,5.71-14.64,5.19-28.2,7.78-40.68,7.78-25.06,0-45.89-7.76-62.51-23.28-16.62-15.52-24.93-35.2-24.93-59.03s7.92-44.26,23.76-62.01c15.84-17.75,37.37-26.63,64.58-26.63,23.42,0,42.79,8.11,58.12,24.32,2.84-5.67,4.65-11.79,5.42-18.36h6.2v55.08h-6.2c-2.5-16.94-9.32-30.35-20.47-40.24-11.15-9.89-24.69-14.83-40.62-14.83s-30.78,5.76-43.01,17.26-18.34,31.94-18.34,61.28,5.9,49.99,17.69,62.19c11.8,12.2,26.43,18.3,43.91,18.3,8.95,0,17.09-1.72,24.41-5.17,7.32-3.44,12.31-7.64,14.98-12.58,2.67-4.94,4-11.19,4-18.72,0-8.83-.63-14.73-1.87-17.69-1.25-2.96-3.16-4.94-5.75-5.96-2.58-1.01-7.32-1.52-14.21-1.52h-4.13v-5.84Z"/>
  <path class="cls-2" d="M281.9,167.69c0-26.46,8.5-47.7,25.49-63.71,17-16.01,38.2-24.02,63.61-24.02s47.08,7.92,64.28,23.76c17.2,15.84,25.8,37.46,25.8,64.85s-8.24,48.04-24.7,64.47c-16.47,16.43-38.14,24.65-65.01,24.65s-47.59-8.22-64.34-24.65-25.13-38.22-25.13-65.35ZM309.7,168.57c0,27.56,5.28,48.25,15.84,62.07,10.56,13.82,26.4,20.73,47.53,20.73,18.53,0,33.18-6.91,43.95-20.73,10.76-13.82,16.15-34.42,16.15-61.81s-5.3-47.04-15.9-61.24c-10.6-14.2-25.98-21.3-46.13-21.3s-35.02,6.93-45.59,20.79c-10.56,13.86-15.84,34.36-15.84,61.5ZM339.2,60.11c0-2.7.93-5.1,2.79-7.21,1.86-2.11,4.25-3.16,7.16-3.16,2.75,0,5.1,1.01,7.04,3.03s2.91,4.47,2.91,7.33-.97,5.31-2.91,7.33-4.29,3.03-7.04,3.03-5.1-1.03-7.04-3.1c-1.94-2.06-2.91-4.49-2.91-7.27ZM383.75,60.11c0-2.86.97-5.31,2.91-7.33s4.29-3.03,7.04-3.03,5.1,1.01,7.04,3.03,2.91,4.47,2.91,7.33-.99,5.2-2.97,7.27c-1.98,2.07-4.31,3.1-6.98,3.1s-5.1-1.01-7.04-3.03-2.91-4.47-2.91-7.33Z"/>
  <path class="cls-2" d="M606.26,202.56h-80.48v35.87c0,11.7.3,19.36.91,22.98.61,3.62,2.14,6.31,4.6,8.06,2.46,1.76,7.14,2.63,14.04,2.63h3.98v5.05h-69.34v-5.05h3.98c6.59,0,11.16-.8,13.7-2.41,2.54-1.61,4.17-4.11,4.89-7.51.72-3.4,1.08-11.32,1.08-23.75v-72.95c0-11.85-.36-19.49-1.08-22.93-.72-3.44-2.24-5.81-4.55-7.13-2.31-1.32-7.37-1.97-15.18-1.97h-2.84v-5.05h69.34v5.05h-2.84c-7.5,0-12.43.6-14.78,1.81-2.35,1.21-3.92,3.46-4.72,6.75s-1.19,11.12-1.19,23.48v29.51h80.48v-29.51c0-11.85-.34-19.49-1.02-22.93-.68-3.44-2.18-5.81-4.49-7.13-2.31-1.32-7.37-1.97-15.18-1.97h-4.09v-5.05h70.14v5.05h-2.27c-7.58,0-12.54.6-14.89,1.81-2.35,1.21-3.92,3.46-4.72,6.75s-1.19,11.12-1.19,23.48v72.95c0,11.7.28,19.36.85,22.98.57,3.62,2.1,6.31,4.6,8.06s7.2,2.63,14.1,2.63h3.52v5.05h-70.14v-5.05h5.34c6.52,0,11.04-.8,13.58-2.41,2.54-1.61,4.15-4.11,4.83-7.51s1.02-11.32,1.02-23.75v-35.87Z"/>
  <path class="cls-2" d="M73.53,404.25c0-25.45,8.77-45.88,26.32-61.28,17.54-15.4,39.43-23.1,65.66-23.1s48.6,7.62,66.35,22.86c17.75,15.24,26.63,36.03,26.63,62.37s-8.5,46.2-25.5,62.01c-17,15.81-39.37,23.71-67.11,23.71s-49.12-7.9-66.42-23.71c-17.29-15.81-25.94-36.76-25.94-62.86ZM102.23,405.1c0,26.5,5.45,46.4,16.35,59.7,10.9,13.29,27.26,19.94,49.06,19.94,19.13,0,34.25-6.65,45.36-19.94,11.11-13.29,16.67-33.11,16.67-59.45s-5.47-45.25-16.42-58.91c-10.95-13.66-26.82-20.49-47.62-20.49s-36.15,6.67-47.06,20c-10.9,13.33-16.35,33.05-16.35,59.15Z"/>
  <path class="cls-2" d="M567.63,451.43l47.58-123.15h40.07v5.05h-4.82c-6.42,0-10.63.6-12.62,1.81-1.99,1.21-3.32,3.46-4,6.75s-1.01,11.12-1.01,23.49v72.99c0,11.71.26,19.37.77,22.99.51,3.62,1.81,6.31,3.9,8.07,2.09,1.76,6.08,2.63,11.99,2.63h5.78v5.05h-62.42v-5.05h4.62c5.52,0,9.36-.8,11.51-2.41,2.15-1.61,3.53-4.12,4.14-7.52.61-3.4.92-11.32.92-23.76v-94.72l-51.73,133.46h-4.53l-52.11-133.46v87.15c0,11.93.32,20.05.96,24.37.64,4.32,2.63,8.1,5.97,11.36,3.34,3.26,8.03,5.1,14.06,5.54v5.05h-46.72v-5.05c5.59-.37,10.13-2.1,13.63-5.21,3.5-3.11,5.63-6.93,6.41-11.47.77-4.54,1.16-12.95,1.16-25.24v-64.76c0-11.85-.31-19.5-.92-22.94-.61-3.44-1.89-5.82-3.85-7.13-1.96-1.32-6.25-1.98-12.86-1.98h-3.56v-5.05h39.78l47.87,123.15Z"/>
  <path class="cls-2" d="M447.82,491.81l-1.17,52.75h-135v-6.08h4.69c6.8,0,11.5-.97,14.12-2.91,2.62-1.94,4.3-4.96,5.04-9.06.74-4.1,1.11-13.64,1.11-28.62v-87.91c0-14.28-.37-23.49-1.11-27.63-.74-4.14-2.31-7.01-4.69-8.59-2.38-1.59-7.6-2.38-15.64-2.38h-3.52v-6.08h76.29v6.08h-7.03c-7.81,0-12.93.73-15.35,2.18-2.42,1.45-4.04,4.16-4.86,8.13s-1.23,13.4-1.23,28.29v93.86c0,12.96.31,21.07.94,24.33.62,3.26,2.32,5.8,5.1,7.6,2.77,1.81,8.73,2.71,17.87,2.71h12.07c9.77,0,17.01-.97,21.74-2.91,4.73-1.94,9.22-6.17,13.48-12.69,4.26-6.52,8.14-16.88,11.66-31.07h5.51Z"/>
</svg>