<?xml version="1.0" encoding="UTF-8"?>
<svg id="Layer_1" data-name="Layer 1" xmlns="http://www.w3.org/2000/svg" viewBox="0 0 935.94 160.64">
  <defs>
    <style>
      .cls-1 {
        fill: #47171a;
      }
    </style>
  </defs>
  <path class="cls-1" d="M82.03,101.66h57.13v4.69c-6.32,0-10.6.63-12.84,1.9s-3.73,3.39-4.44,6.35c-.72,2.96-1.07,10.14-1.07,21.53v14.06c-1.56-.26-2.96-.39-4.2-.39-5.01,0-11.59,1.53-19.73,4.59-11.07,4.17-21.32,6.25-30.76,6.25-18.95,0-34.7-6.23-47.27-18.7C6.28,129.48,0,113.67,0,94.53s5.99-35.55,17.97-49.8c11.98-14.26,28.25-21.39,48.83-21.39,17.71,0,32.36,6.51,43.95,19.53,2.15-4.56,3.52-9.47,4.1-14.75h4.69v44.24h-4.69c-1.89-13.61-7.05-24.38-15.48-32.32-8.43-7.94-18.67-11.91-30.71-11.91s-23.28,4.62-32.52,13.87-13.87,25.65-13.87,49.22,4.46,40.15,13.38,49.95c8.92,9.8,19.99,14.7,33.2,14.7,6.77,0,12.92-1.38,18.46-4.15,5.53-2.77,9.31-6.14,11.33-10.11,2.02-3.97,3.03-8.98,3.03-15.04,0-7.1-.47-11.83-1.42-14.21-.94-2.38-2.39-3.97-4.35-4.79-1.95-.81-5.53-1.22-10.74-1.22h-3.12v-4.69Z"/>
  <path class="cls-1" d="M154.2,91.11c0-20.44,6.84-36.85,20.51-49.22,13.67-12.37,30.73-18.55,51.17-18.55s37.87,6.12,51.71,18.36c13.83,12.24,20.75,28.94,20.75,50.1s-6.63,37.11-19.87,49.8c-13.25,12.7-30.68,19.04-52.29,19.04s-38.28-6.35-51.76-19.04-20.21-29.52-20.21-50.49ZM176.56,91.8c0,21.29,4.25,37.27,12.74,47.95,8.5,10.68,21.24,16.02,38.23,16.02,14.91,0,26.69-5.34,35.35-16.02,8.66-10.68,12.99-26.59,12.99-47.75s-4.26-36.34-12.79-47.31c-8.53-10.97-20.9-16.46-37.11-16.46s-28.17,5.36-36.67,16.06c-8.5,10.71-12.74,26.55-12.74,47.51ZM200.29,8.01c0-2.08.75-3.94,2.25-5.57,1.5-1.63,3.42-2.44,5.76-2.44,2.21,0,4.1.78,5.66,2.34s2.34,3.45,2.34,5.66-.78,4.1-2.34,5.66-3.45,2.34-5.66,2.34-4.1-.8-5.66-2.39c-1.56-1.59-2.34-3.47-2.34-5.62ZM236.13,8.01c0-2.21.78-4.1,2.34-5.66s3.45-2.34,5.66-2.34,4.1.78,5.66,2.34,2.34,3.45,2.34,5.66-.8,4.02-2.39,5.62-3.47,2.39-5.62,2.39-4.1-.78-5.66-2.34-2.34-3.45-2.34-5.66Z"/>
  <path class="cls-1" d="M423.24,91.8h-69.14v31.93c0,10.42.26,17.24.78,20.46.52,3.22,1.84,5.62,3.96,7.18,2.11,1.56,6.14,2.34,12.06,2.34h3.42v4.49h-59.57v-4.49h3.42c5.66,0,9.59-.72,11.77-2.15,2.18-1.43,3.58-3.66,4.2-6.69.62-3.03.93-10.07.93-21.14V58.79c0-10.55-.31-17.35-.93-20.41-.62-3.06-1.92-5.18-3.91-6.35-1.99-1.17-6.33-1.76-13.04-1.76h-2.44v-4.49h59.57v4.49h-2.44c-6.45,0-10.68.54-12.7,1.61-2.02,1.07-3.37,3.08-4.05,6.01s-1.03,9.9-1.03,20.9v26.27h69.14v-26.27c0-10.55-.29-17.35-.88-20.41-.59-3.06-1.87-5.18-3.86-6.35-1.99-1.17-6.33-1.76-13.04-1.76h-3.52v-4.49h60.25v4.49h-1.95c-6.51,0-10.78.54-12.79,1.61-2.02,1.07-3.37,3.08-4.05,6.01s-1.03,9.9-1.03,20.9v64.94c0,10.42.24,17.24.73,20.46s1.81,5.62,3.96,7.18,6.18,2.34,12.11,2.34h3.03v4.49h-60.25v-4.49h4.59c5.6,0,9.49-.72,11.67-2.15,2.18-1.43,3.56-3.66,4.15-6.69s.88-10.07.88-21.14v-31.93Z"/>
  <path class="cls-1" d="M479.2,91.11c0-20.44,6.84-36.85,20.51-49.22,13.67-12.37,30.73-18.55,51.17-18.55s37.87,6.12,51.71,18.36c13.83,12.24,20.75,28.94,20.75,50.1s-6.62,37.11-19.87,49.8c-13.25,12.7-30.68,19.04-52.29,19.04s-38.28-6.35-51.76-19.04-20.21-29.52-20.21-50.49ZM501.56,91.8c0,21.29,4.25,37.27,12.74,47.95,8.5,10.68,21.24,16.02,38.23,16.02,14.91,0,26.69-5.34,35.35-16.02,8.66-10.68,12.99-26.59,12.99-47.75s-4.26-36.34-12.79-47.31c-8.53-10.97-20.9-16.46-37.11-16.46s-28.17,5.36-36.67,16.06c-8.5,10.71-12.74,26.55-12.74,47.51Z"/>
  <path class="cls-1" d="M752.64,119.24l-.98,38.96h-112.5v-4.49h3.91c5.66,0,9.59-.72,11.77-2.15,2.18-1.43,3.58-3.66,4.2-6.69.62-3.03.93-10.07.93-21.14V58.79c0-10.55-.31-17.35-.93-20.41-.62-3.06-1.92-5.18-3.91-6.35-1.99-1.17-6.33-1.76-13.04-1.76h-2.93v-4.49h63.57v4.49h-5.86c-6.51,0-10.78.54-12.79,1.61-2.02,1.07-3.37,3.08-4.05,6.01s-1.03,9.9-1.03,20.9v69.34c0,9.57.26,15.56.78,17.97.52,2.41,1.94,4.28,4.25,5.62,2.31,1.33,7.28,2,14.89,2h10.06c8.14,0,14.18-.72,18.12-2.15,3.94-1.43,7.68-4.56,11.23-9.38,3.55-4.82,6.79-12.47,9.72-22.95h4.59Z"/>
  <path class="cls-1" d="M847.07,135.35l48.24-109.57h40.62v4.49h-4.88c-6.51,0-10.78.54-12.79,1.61-2.02,1.07-3.37,3.08-4.05,6.01s-1.03,9.9-1.03,20.9v64.94c0,10.42.26,17.24.78,20.46.52,3.22,1.84,5.62,3.96,7.18,2.12,1.56,6.17,2.34,12.16,2.34h5.86v4.49h-63.28v-4.49h4.69c5.6,0,9.49-.72,11.67-2.15,2.18-1.43,3.58-3.66,4.2-6.69.62-3.03.93-10.07.93-21.14V39.45l-52.44,118.75h-4.59l-52.83-118.75v77.54c0,10.61.33,17.84.98,21.68.65,3.84,2.67,7.21,6.05,10.11,3.38,2.9,8.14,4.54,14.26,4.93v4.49h-47.36v-4.49c5.66-.33,10.27-1.87,13.82-4.64,3.55-2.77,5.71-6.17,6.49-10.21.78-4.04,1.17-11.52,1.17-22.46v-57.62c0-10.55-.31-17.35-.93-20.41-.62-3.06-1.92-5.18-3.91-6.35-1.99-1.17-6.33-1.76-13.04-1.76h-3.61v-4.49h40.33l48.54,109.57Z"/>
</svg>